inDegrees=yes
name=ik_lifting_orientations
DataType=double
version=3
OpenSimVersion=4.5-2024-01-10-34fd6af
endheader
time	pelvis_tilt	pelvis_list	pelvis_rotation	pelvis_tx	pelvis_ty	pelvis_tz	hip_flexion_r	hip_adduction_r	hip_rotation_r	knee_angle_r	knee_angle_r_beta	ankle_angle_r	subtalar_angle_r	mtp_angle_r	hip_flexion_l	hip_adduction_l	hip_rotation_l	knee_angle_l	knee_angle_l_beta	ankle_angle_l	subtalar_angle_l	mtp_angle_l	lumbar_extension	lumbar_bending	lumbar_rotation	arm_flex_r	arm_add_r	arm_rot_r	elbow_flex_r	pro_sup_r	wrist_flex_r	wrist_dev_r	arm_flex_l	arm_add_l	arm_rot_l	elbow_flex_l	pro_sup_l	wrist_flex_l	wrist_dev_l
0.5600000000000001	1.237374765420607	6.458529715516556	-145.7976992667176	0	0.9399999998679526	0	38.39462396957671	-10.46765768580829	0	60.76769159551726	1.060596297178262	-5.249504536444394	0	0	38.39462396957671	-10.46765768580829	0	60.76769159551726	1.060596297178262	-5.249504536444394	0	0	-19.25071374786688	-8.67937894200095	-7.957742210704373	22.94924215088523	20.2726048350159	37.97268750565302	0.1053675941126218	-0.1273732795475147	0	0	0	-8.431567271063784	0	90.71797416599914	-0.1273732795475147	0	0
0.57	-0.2948120250855767	6.493302590036314	-145.658024816847	0	0.9399999998679526	0	38.39680142395895	-10.46713711123378	0	60.76749020013014	1.060592782165659	-5.249144166245503	0	0	38.39680142395895	-10.46713711123378	0	60.76749020013014	1.060592782165659	-5.249144166245503	0	0	-21.90176296115841	-7.277922519753927	-8.298560727880172	24.63749615246956	20.06068047358101	38.82672930131492	0.09052185334106229	-0.1273440658714293	0	0	0	-8.43268863865004	0	90.71780933157176	-0.1273440658714293	0	0
0.58	-1.279717043181592	6.484635072434124	-145.5593797458386	0	0.9399999998679526	0	38.39941436094983	-10.46649977336163	0	60.76725261947468	1.060588635600982	-5.248701338752435	0	0	38.39941436094983	-10.46649977336163	0	60.76725261947468	1.060588635600982	-5.248701338752435	0	0	-23.9924082447001	-6.257111107956601	-8.67183552480825	26.0130819827582	19.79207742126782	40.35640872232608	0.08699343913739847	-0.1273092440149911	0	0	0	-8.434018139081646	0	90.71761285326271	-0.1273092440149911	0	0
0.59	-4.182634113334275	6.456553403877401	-145.101165781211	0	0.9399999998679526	0	38.40187324893542	-10.46590177781932	0	60.76702865941476	1.060584726760543	-5.248286178859648	0	0	38.40187324893542	-10.46590177781932	0	60.76702865941476	1.060584726760543	-5.248286178859648	0	0	-27.18023066852273	-4.450528523149113	-8.516774603017023	26.8258003909344	19.65770917101823	41.99592773138004	0.08806567839763901	-0.1272764496956705	0	0	0	-8.435270959832657	0	90.71742781514742	-0.1272764496956705	0	0
0.6	-6.642238606216388	6.356794491194586	-144.5663342738328	0	0.9399999998679526	0	38.40425671910975	-10.4653220797627	0	60.76681172670593	1.060580940570519	-5.247883802041701	0	0	38.40425671910975	-10.4653220797627	0	60.76681172670593	1.060580940570519	-5.247883802041701	0	0	-30.07654227224914	-2.87197441280115	-8.516863164434341	27.54911773461979	19.71448730134047	43.76015687129884	0.090913453140659	-0.127244667692276	0	0	0	-8.436484873497509	0	90.71724848889551	-0.127244667692276	0	0
0.61	-8.918945626498441	6.21950729123814	-144.0207163909173	0	0.9399999998679526	0	38.40635554277156	-10.46481635603701	0	60.76661938057732	1.060577583497271	-5.247533495403706	0	0	38.40635554277156	-10.46481635603701	0	60.76661938057732	1.060577583497271	-5.247533495403706	0	0	-33.01489777514821	-1.295302242563526	-8.572686651421192	28.44605367758649	19.86684888694551	45.2585826038808	0.09365397140078574	-0.1272166020144882	0	0	0	-8.437559210958954	0	90.71709013172882	-0.1272166020144882	0	0
0.62	-12.86092596049173	5.937612090615833	-143.1453726230042	0	0.9399999998679526	0	38.40870527722876	-10.46425186660813	0	60.76640355546281	1.060573816638415	-5.247142738919126	0	0	38.40870527722876	-10.46425186660813	0	60.76640355546281	1.060573816638415	-5.247142738919126	0	0	-36.73771131086311	1.092049007941416	-7.618406707358737	28.94283003743775	19.6578892176499	45.56953430400652	0.08981748174306539	-0.1271851513741154	0	0	0	-8.438764026584931	0	90.71691267538201	-0.1271851513741154	0	0
0.63	-12.40212635173269	5.898041769618279	-143.0992455320041	0	0.9399999998679526	0	38.41105953218737	-10.46367892339605	0	60.76618973475955	1.060570084763134	-5.246745210038785	0	0	38.41105953218737	-10.46367892339605	0	60.76618973475955	1.060570084763134	-5.246745210038785	0	0	-36.81904626763171	1.298870509899829	-7.733880926814286	29.52874900988585	19.39533362133638	45.68833208099016	0.08762605351840301	-0.127153778190566	0	0	0	-8.439961657300866	0	90.71673565581614	-0.127153778190566	0	0
0.64	-21.22012888600738	5.100419754175634	-141.2482028112462	0	0.9399999998679526	0	38.41447760332957	-10.46285067882855	0	60.76587845115804	1.06056465183938	-5.246171185070371	0	0	38.41447760332957	-10.46285067882855	0	60.76587845115804	1.06056465183938	-5.246171185070371	0	0	-44.23175139632112	5.501687356754315	-5.380971861413795	29.48140383643499	19.47225755327145	45.96143495267005	0.08491374220590664	-0.1271081744735723	0	0	0	-8.44170409027636	0	90.71647834221258	-0.1271081744735723	0	0
0.65	-30.57942145531802	3.784364621428517	-139.1666117346158	0	0.9399999998679526	0	38.41773065926898	-10.46206322168584	0	60.76558223089954	1.060559481820558	-5.245625703272272	0	0	38.41773065926898	-10.46206322168584	0	60.76558223089954	1.060559481820558	-5.245625703272272	0	0	-52.3328075411812	9.529874541829496	-2.74884776462959	29.26988125938748	19.76323453567534	46.63514843537461	0.08252614984270369	-0.1270647691914559	0	0	0	-8.443362546455392	0	90.71623343302703	-0.1270647691914559	0	0
